<mxfile host="app.diagrams.net" modified="2024-05-21T22:43:43.727Z" agent="Mozilla/5.0 (X11; Linux x86_64; rv:109.0) Gecko/20100101 Firefox/115.0" etag="Q9v6v6qXBIrtAfKRfDwL" version="24.4.4" type="device">
  <diagram name="Page-1" id="58cdce13-f638-feb5-8d6f-7d28b1aa9fa0">
    <mxGraphModel dx="1020" dy="1143" grid="1" gridSize="10" guides="1" tooltips="1" connect="1" arrows="1" fold="1" page="1" pageScale="1" pageWidth="1100" pageHeight="850" background="none" math="0" shadow="0">
      <root>
        <mxCell id="0" />
        <mxCell id="1" parent="0" />
        <mxCell id="382b91b5511bd0f7-1" value="" style="ellipse;html=1;shape=startState;fillColor=#000000;strokeColor=#ff0000;rounded=1;shadow=0;comic=0;labelBackgroundColor=none;fontFamily=Verdana;fontSize=12;fontColor=#000000;align=center;direction=south;" parent="1" vertex="1">
          <mxGeometry x="170" y="135" width="30" height="30" as="geometry" />
        </mxCell>
        <mxCell id="382b91b5511bd0f7-5" value="Регистрация" style="rounded=1;whiteSpace=wrap;html=1;arcSize=24;fillColor=#ffffc0;strokeColor=#ff0000;shadow=0;comic=0;labelBackgroundColor=none;fontFamily=Verdana;fontSize=12;fontColor=#000000;align=center;" parent="1" vertex="1">
          <mxGeometry x="280" y="220" width="120" height="60" as="geometry" />
        </mxCell>
        <mxCell id="382b91b5511bd0f7-6" value="Логин" style="rounded=1;whiteSpace=wrap;html=1;arcSize=24;fillColor=#ffffc0;strokeColor=#ff0000;shadow=0;comic=0;labelBackgroundColor=none;fontFamily=Verdana;fontSize=12;fontColor=#000000;align=center;" parent="1" vertex="1">
          <mxGeometry x="280" y="120" width="120" height="60" as="geometry" />
        </mxCell>
        <mxCell id="3cde6dad864a17aa-3" style="edgeStyle=orthogonalEdgeStyle;html=1;labelBackgroundColor=none;endArrow=open;endSize=8;strokeColor=#ff0000;fontFamily=Verdana;fontSize=12;align=left;entryX=0.5;entryY=0;entryDx=0;entryDy=0;exitX=1;exitY=0.5;exitDx=0;exitDy=0;" parent="1" source="PaydA0Tg0tzG1Le85C62-20" target="PaydA0Tg0tzG1Le85C62-6" edge="1">
          <mxGeometry relative="1" as="geometry">
            <mxPoint x="910" y="400" as="sourcePoint" />
            <mxPoint x="600" y="150" as="targetPoint" />
            <Array as="points">
              <mxPoint x="835" y="360" />
              <mxPoint x="930" y="360" />
              <mxPoint x="930" y="40" />
              <mxPoint x="595" y="40" />
            </Array>
          </mxGeometry>
        </mxCell>
        <mxCell id="382b91b5511bd0f7-7" value="&lt;div&gt;Просмотр&amp;nbsp;&lt;/div&gt;&lt;div&gt;профиля&lt;/div&gt;" style="rounded=1;whiteSpace=wrap;html=1;arcSize=24;fillColor=#ffffc0;strokeColor=#ff0000;shadow=0;comic=0;labelBackgroundColor=none;fontFamily=Verdana;fontSize=12;fontColor=#000000;align=center;" parent="1" vertex="1">
          <mxGeometry x="510" y="215" width="120" height="60" as="geometry" />
        </mxCell>
        <mxCell id="3cde6dad864a17aa-13" style="edgeStyle=elbowEdgeStyle;html=1;exitX=0.5;exitY=1;labelBackgroundColor=none;endArrow=open;endSize=8;strokeColor=#ff0000;fontFamily=Verdana;fontSize=12;align=left;exitDx=0;exitDy=0;entryX=0.5;entryY=0;entryDx=0;entryDy=0;" parent="1" source="382b91b5511bd0f7-10" target="382b91b5511bd0f7-9" edge="1">
          <mxGeometry relative="1" as="geometry">
            <mxPoint x="860" y="258" as="targetPoint" />
          </mxGeometry>
        </mxCell>
        <mxCell id="382b91b5511bd0f7-9" value="Просмотр блюд" style="rounded=1;whiteSpace=wrap;html=1;arcSize=24;fillColor=#ffffc0;strokeColor=#ff0000;shadow=0;comic=0;labelBackgroundColor=none;fontFamily=Verdana;fontSize=12;fontColor=#000000;align=center;" parent="1" vertex="1">
          <mxGeometry x="760" y="250" width="120" height="60" as="geometry" />
        </mxCell>
        <mxCell id="3cde6dad864a17aa-5" style="edgeStyle=elbowEdgeStyle;html=1;labelBackgroundColor=none;endArrow=open;endSize=8;strokeColor=#ff0000;fontFamily=Verdana;fontSize=12;align=left;entryX=0.5;entryY=0;entryDx=0;entryDy=0;exitX=0.5;exitY=1;exitDx=0;exitDy=0;" parent="1" source="PaydA0Tg0tzG1Le85C62-20" target="PaydA0Tg0tzG1Le85C62-19" edge="1">
          <mxGeometry relative="1" as="geometry">
            <mxPoint x="820" y="495" as="sourcePoint" />
          </mxGeometry>
        </mxCell>
        <mxCell id="2a3bc250acf0617d-9" style="edgeStyle=orthogonalEdgeStyle;html=1;labelBackgroundColor=none;endArrow=open;endSize=8;strokeColor=#ff0000;fontFamily=Verdana;fontSize=12;align=left;" parent="1" source="382b91b5511bd0f7-1" target="382b91b5511bd0f7-6" edge="1">
          <mxGeometry relative="1" as="geometry" />
        </mxCell>
        <mxCell id="2a3bc250acf0617d-12" style="edgeStyle=orthogonalEdgeStyle;html=1;entryX=0;entryY=0.5;labelBackgroundColor=none;endArrow=open;endSize=8;strokeColor=#ff0000;fontFamily=Verdana;fontSize=12;align=left;entryDx=0;entryDy=0;" parent="1" source="382b91b5511bd0f7-1" target="382b91b5511bd0f7-5" edge="1">
          <mxGeometry relative="1" as="geometry">
            <Array as="points">
              <mxPoint x="240" y="150" />
              <mxPoint x="240" y="250" />
            </Array>
          </mxGeometry>
        </mxCell>
        <mxCell id="2a3bc250acf0617d-13" style="edgeStyle=orthogonalEdgeStyle;html=1;exitX=1;exitY=0.5;labelBackgroundColor=none;endArrow=open;endSize=8;strokeColor=#ff0000;fontFamily=Verdana;fontSize=12;align=left;entryX=0;entryY=0.5;entryDx=0;entryDy=0;" parent="1" source="PaydA0Tg0tzG1Le85C62-3" target="382b91b5511bd0f7-7" edge="1">
          <mxGeometry relative="1" as="geometry">
            <mxPoint x="430" y="230" as="targetPoint" />
          </mxGeometry>
        </mxCell>
        <mxCell id="2a3bc250acf0617d-14" style="edgeStyle=orthogonalEdgeStyle;html=1;exitX=0.5;exitY=0;entryX=1;entryY=0.75;labelBackgroundColor=none;endArrow=open;endSize=8;strokeColor=#ff0000;fontFamily=Verdana;fontSize=12;align=left;" parent="1" source="382b91b5511bd0f7-10" edge="1">
          <mxGeometry relative="1" as="geometry">
            <mxPoint x="810" y="229.9999999999999" as="sourcePoint" />
            <mxPoint x="860" y="179.9999999999999" as="targetPoint" />
            <Array as="points">
              <mxPoint x="810" y="200" />
              <mxPoint x="870" y="200" />
              <mxPoint x="870" y="180" />
            </Array>
          </mxGeometry>
        </mxCell>
        <mxCell id="2a3bc250acf0617d-15" style="edgeStyle=orthogonalEdgeStyle;html=1;entryX=0.5;entryY=0;labelBackgroundColor=none;endArrow=open;endSize=8;strokeColor=#ff0000;fontFamily=Verdana;fontSize=12;align=left;entryDx=0;entryDy=0;exitX=0.5;exitY=0;exitDx=0;exitDy=0;" parent="1" source="382b91b5511bd0f7-10" target="PaydA0Tg0tzG1Le85C62-6" edge="1">
          <mxGeometry relative="1" as="geometry">
            <mxPoint x="790" y="80" as="sourcePoint" />
            <mxPoint x="460" y="229.9999999999999" as="targetPoint" />
            <Array as="points">
              <mxPoint x="820" y="90" />
              <mxPoint x="595" y="90" />
            </Array>
          </mxGeometry>
        </mxCell>
        <mxCell id="3cde6dad864a17aa-6" style="edgeStyle=elbowEdgeStyle;html=1;labelBackgroundColor=none;endArrow=open;endSize=8;strokeColor=#ff0000;fontFamily=Verdana;fontSize=12;align=left;exitX=1;exitY=0.5;exitDx=0;exitDy=0;entryX=0.5;entryY=0;entryDx=0;entryDy=0;" parent="1" source="PaydA0Tg0tzG1Le85C62-28" target="PaydA0Tg0tzG1Le85C62-6" edge="1">
          <mxGeometry relative="1" as="geometry">
            <mxPoint x="975" y="610" as="sourcePoint" />
            <mxPoint x="630" y="60" as="targetPoint" />
            <Array as="points">
              <mxPoint x="1015" y="360" />
            </Array>
          </mxGeometry>
        </mxCell>
        <mxCell id="3cde6dad864a17aa-7" style="edgeStyle=elbowEdgeStyle;html=1;labelBackgroundColor=none;endArrow=open;endSize=8;strokeColor=#ff0000;fontFamily=Verdana;fontSize=12;align=left;entryX=1;entryY=0.5;entryDx=0;entryDy=0;exitX=0;exitY=0.5;exitDx=0;exitDy=0;" parent="1" source="PaydA0Tg0tzG1Le85C62-34" target="PaydA0Tg0tzG1Le85C62-36" edge="1">
          <mxGeometry relative="1" as="geometry">
            <mxPoint x="320" y="485" as="sourcePoint" />
            <mxPoint x="360" y="370" as="targetPoint" />
          </mxGeometry>
        </mxCell>
        <mxCell id="3cde6dad864a17aa-8" style="edgeStyle=elbowEdgeStyle;html=1;labelBackgroundColor=none;endArrow=open;endSize=8;strokeColor=#ff0000;fontFamily=Verdana;fontSize=12;align=left;exitX=0.5;exitY=1;exitDx=0;exitDy=0;entryX=0.5;entryY=0;entryDx=0;entryDy=0;" parent="1" source="382b91b5511bd0f7-7" target="PaydA0Tg0tzG1Le85C62-16" edge="1">
          <mxGeometry relative="1" as="geometry">
            <mxPoint x="350" y="515" as="sourcePoint" />
            <mxPoint x="269.41176470588243" y="495" as="targetPoint" />
          </mxGeometry>
        </mxCell>
        <mxCell id="PaydA0Tg0tzG1Le85C62-4" value="" style="edgeStyle=orthogonalEdgeStyle;html=1;labelBackgroundColor=none;endArrow=open;endSize=8;strokeColor=#ff0000;fontFamily=Verdana;fontSize=12;align=left;entryX=0;entryY=0.5;entryDx=0;entryDy=0;" edge="1" parent="1" source="382b91b5511bd0f7-6" target="PaydA0Tg0tzG1Le85C62-3">
          <mxGeometry relative="1" as="geometry">
            <Array as="points" />
            <mxPoint x="400" y="150" as="sourcePoint" />
            <mxPoint x="530" y="240" as="targetPoint" />
          </mxGeometry>
        </mxCell>
        <mxCell id="PaydA0Tg0tzG1Le85C62-5" value="" style="edgeStyle=orthogonalEdgeStyle;html=1;exitX=1;exitY=0.5;labelBackgroundColor=none;endArrow=open;endSize=8;strokeColor=#ff0000;fontFamily=Verdana;fontSize=12;align=left;entryX=0;entryY=0.5;entryDx=0;entryDy=0;" edge="1" parent="1" source="382b91b5511bd0f7-5" target="PaydA0Tg0tzG1Le85C62-3">
          <mxGeometry relative="1" as="geometry">
            <mxPoint x="400" y="250" as="sourcePoint" />
            <mxPoint x="530" y="240" as="targetPoint" />
          </mxGeometry>
        </mxCell>
        <mxCell id="PaydA0Tg0tzG1Le85C62-3" value="" style="rhombus;whiteSpace=wrap;html=1;" vertex="1" parent="1">
          <mxGeometry x="450" y="230" width="30" height="30" as="geometry" />
        </mxCell>
        <mxCell id="PaydA0Tg0tzG1Le85C62-6" value="" style="rhombus;whiteSpace=wrap;html=1;" vertex="1" parent="1">
          <mxGeometry x="580" y="120" width="30" height="30" as="geometry" />
        </mxCell>
        <mxCell id="PaydA0Tg0tzG1Le85C62-10" style="edgeStyle=orthogonalEdgeStyle;html=1;exitX=0.5;exitY=0;entryX=0;entryY=0.5;labelBackgroundColor=none;endArrow=open;endSize=8;strokeColor=#ff0000;fontFamily=Verdana;fontSize=12;align=left;entryDx=0;entryDy=0;exitDx=0;exitDy=0;" edge="1" parent="1" source="PaydA0Tg0tzG1Le85C62-3" target="PaydA0Tg0tzG1Le85C62-6">
          <mxGeometry relative="1" as="geometry">
            <mxPoint x="640" y="240" as="sourcePoint" />
            <mxPoint x="830" y="320" as="targetPoint" />
          </mxGeometry>
        </mxCell>
        <mxCell id="PaydA0Tg0tzG1Le85C62-11" style="edgeStyle=orthogonalEdgeStyle;html=1;exitX=1;exitY=0.5;entryX=0;entryY=0.5;labelBackgroundColor=none;endArrow=open;endSize=8;strokeColor=#ff0000;fontFamily=Verdana;fontSize=12;align=left;exitDx=0;exitDy=0;entryDx=0;entryDy=0;" edge="1" parent="1" source="PaydA0Tg0tzG1Le85C62-6" target="382b91b5511bd0f7-10">
          <mxGeometry relative="1" as="geometry">
            <mxPoint x="690" y="165" as="sourcePoint" />
            <mxPoint x="880" y="245" as="targetPoint" />
          </mxGeometry>
        </mxCell>
        <mxCell id="PaydA0Tg0tzG1Le85C62-13" value="" style="edgeStyle=orthogonalEdgeStyle;html=1;entryX=0.5;entryY=0;labelBackgroundColor=none;endArrow=open;endSize=8;strokeColor=#ff0000;fontFamily=Verdana;fontSize=12;align=left;entryDx=0;entryDy=0;exitX=0.5;exitY=1;exitDx=0;exitDy=0;" edge="1" parent="1" source="PaydA0Tg0tzG1Le85C62-24" target="PaydA0Tg0tzG1Le85C62-18">
          <mxGeometry relative="1" as="geometry">
            <mxPoint x="740" y="570" as="sourcePoint" />
            <mxPoint x="660" y="440.0000000000001" as="targetPoint" />
          </mxGeometry>
        </mxCell>
        <mxCell id="382b91b5511bd0f7-10" value="Поиск блюд" style="rounded=1;whiteSpace=wrap;html=1;arcSize=24;fillColor=#ffffc0;strokeColor=#ff0000;shadow=0;comic=0;labelBackgroundColor=none;fontFamily=Verdana;fontSize=12;fontColor=#000000;align=center;" parent="1" vertex="1">
          <mxGeometry x="760" y="145" width="120" height="60" as="geometry" />
        </mxCell>
        <mxCell id="PaydA0Tg0tzG1Le85C62-14" value="&lt;div&gt;&lt;font style=&quot;font-size: 10px;&quot;&gt;Блюда есть&lt;/font&gt;&lt;br&gt;&lt;/div&gt;" style="text;align=center;fontStyle=1;verticalAlign=middle;spacingLeft=3;spacingRight=3;strokeColor=none;rotatable=0;points=[[0,0.5],[1,0.5]];portConstraint=eastwest;html=1;fillColor=#FFFFFF;" vertex="1" parent="1">
          <mxGeometry x="795" y="215" width="50" height="21" as="geometry" />
        </mxCell>
        <mxCell id="PaydA0Tg0tzG1Le85C62-15" value="Блюда не нашлись" style="text;align=center;fontStyle=1;verticalAlign=middle;spacingLeft=3;spacingRight=3;strokeColor=none;rotatable=0;points=[[0,0.5],[1,0.5]];portConstraint=eastwest;html=1;" vertex="1" parent="1">
          <mxGeometry x="660" y="60" width="80" height="26" as="geometry" />
        </mxCell>
        <mxCell id="PaydA0Tg0tzG1Le85C62-16" value="&lt;div&gt;Заполнить &lt;br&gt;&lt;/div&gt;&lt;div&gt;реквизиты (адрес, номер телефона)&lt;br&gt;&lt;/div&gt;" style="rounded=1;whiteSpace=wrap;html=1;arcSize=24;fillColor=#ffffc0;strokeColor=#ff0000;shadow=0;comic=0;labelBackgroundColor=none;fontFamily=Verdana;fontSize=12;fontColor=#000000;align=center;" vertex="1" parent="1">
          <mxGeometry x="510" y="320" width="120" height="60" as="geometry" />
        </mxCell>
        <mxCell id="PaydA0Tg0tzG1Le85C62-17" value="Сделать заказ" style="rounded=1;whiteSpace=wrap;html=1;arcSize=24;fillColor=#ffffc0;strokeColor=#ff0000;shadow=0;comic=0;labelBackgroundColor=none;fontFamily=Verdana;fontSize=12;fontColor=#000000;align=center;" vertex="1" parent="1">
          <mxGeometry x="900" y="710" width="120" height="60" as="geometry" />
        </mxCell>
        <mxCell id="PaydA0Tg0tzG1Le85C62-18" value="&lt;div&gt;Просмотр&amp;nbsp;&lt;/div&gt;&lt;div&gt;корзины&lt;/div&gt;" style="rounded=1;whiteSpace=wrap;html=1;arcSize=24;fillColor=#ffffc0;strokeColor=#ff0000;shadow=0;comic=0;labelBackgroundColor=none;fontFamily=Verdana;fontSize=12;fontColor=#000000;align=center;" vertex="1" parent="1">
          <mxGeometry x="760" y="590" width="120" height="60" as="geometry" />
        </mxCell>
        <mxCell id="PaydA0Tg0tzG1Le85C62-19" value="Добавить в корзину" style="rounded=1;whiteSpace=wrap;html=1;arcSize=24;fillColor=#ffffc0;strokeColor=#ff0000;shadow=0;comic=0;labelBackgroundColor=none;fontFamily=Verdana;fontSize=12;fontColor=#000000;align=center;" vertex="1" parent="1">
          <mxGeometry x="760" y="425" width="120" height="60" as="geometry" />
        </mxCell>
        <mxCell id="PaydA0Tg0tzG1Le85C62-21" value="" style="edgeStyle=elbowEdgeStyle;html=1;labelBackgroundColor=none;endArrow=open;endSize=8;strokeColor=#ff0000;fontFamily=Verdana;fontSize=12;align=left;entryX=0.5;entryY=0;entryDx=0;entryDy=0;exitX=0.5;exitY=1;exitDx=0;exitDy=0;" edge="1" parent="1" source="382b91b5511bd0f7-9" target="PaydA0Tg0tzG1Le85C62-20">
          <mxGeometry relative="1" as="geometry">
            <mxPoint x="820" y="300" as="sourcePoint" />
            <mxPoint x="820" y="425" as="targetPoint" />
          </mxGeometry>
        </mxCell>
        <mxCell id="PaydA0Tg0tzG1Le85C62-20" value="" style="rhombus;whiteSpace=wrap;html=1;" vertex="1" parent="1">
          <mxGeometry x="805" y="340" width="30" height="30" as="geometry" />
        </mxCell>
        <mxCell id="PaydA0Tg0tzG1Le85C62-23" value="&lt;font style=&quot;font-size: 10px;&quot;&gt;Блюда выбраны&lt;/font&gt;" style="text;align=center;fontStyle=1;verticalAlign=middle;spacingLeft=3;spacingRight=3;strokeColor=none;rotatable=0;points=[[0,0.5],[1,0.5]];portConstraint=eastwest;html=1;shadow=0;fillColor=#FFFFFF;" vertex="1" parent="1">
          <mxGeometry x="770" y="380" width="100" height="26" as="geometry" />
        </mxCell>
        <mxCell id="PaydA0Tg0tzG1Le85C62-27" value="" style="edgeStyle=orthogonalEdgeStyle;html=1;entryX=0.5;entryY=0;labelBackgroundColor=none;endArrow=open;endSize=8;strokeColor=#ff0000;fontFamily=Verdana;fontSize=12;align=left;entryDx=0;entryDy=0;exitX=0.5;exitY=1;exitDx=0;exitDy=0;" edge="1" parent="1" source="PaydA0Tg0tzG1Le85C62-19" target="PaydA0Tg0tzG1Le85C62-24">
          <mxGeometry relative="1" as="geometry">
            <mxPoint x="820" y="485" as="sourcePoint" />
            <mxPoint x="820" y="620" as="targetPoint" />
          </mxGeometry>
        </mxCell>
        <mxCell id="PaydA0Tg0tzG1Le85C62-24" value="" style="rhombus;whiteSpace=wrap;html=1;" vertex="1" parent="1">
          <mxGeometry x="805" y="530" width="30" height="30" as="geometry" />
        </mxCell>
        <mxCell id="PaydA0Tg0tzG1Le85C62-28" value="" style="rhombus;whiteSpace=wrap;html=1;" vertex="1" parent="1">
          <mxGeometry x="940" y="605" width="30" height="30" as="geometry" />
        </mxCell>
        <mxCell id="PaydA0Tg0tzG1Le85C62-29" value="" style="edgeStyle=orthogonalEdgeStyle;html=1;labelBackgroundColor=none;endArrow=open;endSize=8;strokeColor=#ff0000;fontFamily=Verdana;fontSize=12;align=left;exitX=0.5;exitY=1;exitDx=0;exitDy=0;" edge="1" parent="1" source="PaydA0Tg0tzG1Le85C62-28" target="PaydA0Tg0tzG1Le85C62-17">
          <mxGeometry relative="1" as="geometry">
            <mxPoint x="629.17" y="480" as="sourcePoint" />
            <mxPoint x="629.17" y="540" as="targetPoint" />
          </mxGeometry>
        </mxCell>
        <mxCell id="PaydA0Tg0tzG1Le85C62-30" value="" style="edgeStyle=orthogonalEdgeStyle;html=1;entryX=0;entryY=0.5;labelBackgroundColor=none;endArrow=open;endSize=8;strokeColor=#ff0000;fontFamily=Verdana;fontSize=12;align=left;entryDx=0;entryDy=0;exitX=1;exitY=0.5;exitDx=0;exitDy=0;" edge="1" parent="1" source="PaydA0Tg0tzG1Le85C62-18" target="PaydA0Tg0tzG1Le85C62-28">
          <mxGeometry relative="1" as="geometry">
            <mxPoint x="670" y="450" as="sourcePoint" />
            <mxPoint x="670" y="510" as="targetPoint" />
          </mxGeometry>
        </mxCell>
        <mxCell id="PaydA0Tg0tzG1Le85C62-31" value="" style="edgeStyle=orthogonalEdgeStyle;html=1;entryX=1;entryY=0.5;labelBackgroundColor=none;endArrow=open;endSize=8;strokeColor=#ff0000;fontFamily=Verdana;fontSize=12;align=left;entryDx=0;entryDy=0;exitX=0.5;exitY=0;exitDx=0;exitDy=0;" edge="1" parent="1" source="PaydA0Tg0tzG1Le85C62-28" target="382b91b5511bd0f7-9">
          <mxGeometry relative="1" as="geometry">
            <mxPoint x="610" y="560" as="sourcePoint" />
            <mxPoint x="610" y="620" as="targetPoint" />
          </mxGeometry>
        </mxCell>
        <mxCell id="PaydA0Tg0tzG1Le85C62-32" value="&lt;div&gt;Оплатить&lt;/div&gt;&lt;div&gt;заказ&lt;br&gt;&lt;/div&gt;" style="rounded=1;whiteSpace=wrap;html=1;arcSize=24;fillColor=#ffffc0;strokeColor=#ff0000;shadow=0;comic=0;labelBackgroundColor=none;fontFamily=Verdana;fontSize=12;fontColor=#000000;align=center;" vertex="1" parent="1">
          <mxGeometry x="745" y="710" width="120" height="60" as="geometry" />
        </mxCell>
        <mxCell id="PaydA0Tg0tzG1Le85C62-34" value="Выйти" style="rounded=1;whiteSpace=wrap;html=1;arcSize=24;fillColor=#ffffc0;strokeColor=#ff0000;shadow=0;comic=0;labelBackgroundColor=none;fontFamily=Verdana;fontSize=12;fontColor=#000000;align=center;" vertex="1" parent="1">
          <mxGeometry x="440" y="710" width="120" height="60" as="geometry" />
        </mxCell>
        <mxCell id="PaydA0Tg0tzG1Le85C62-36" value="" style="ellipse;html=1;shape=endState;fillColor=#000000;strokeColor=#ff0000;align=center;verticalAlign=middle;spacingLeft=3;spacingRight=3;fontFamily=Helvetica;fontSize=12;fontColor=default;fontStyle=1;" vertex="1" parent="1">
          <mxGeometry x="380" y="725" width="30" height="30" as="geometry" />
        </mxCell>
        <mxCell id="PaydA0Tg0tzG1Le85C62-38" value="" style="edgeStyle=orthogonalEdgeStyle;html=1;labelBackgroundColor=none;endArrow=open;endSize=8;strokeColor=#ff0000;fontFamily=Verdana;fontSize=12;align=left;exitX=0;exitY=0.5;exitDx=0;exitDy=0;entryX=1;entryY=0.5;entryDx=0;entryDy=0;" edge="1" parent="1" source="PaydA0Tg0tzG1Le85C62-17" target="PaydA0Tg0tzG1Le85C62-32">
          <mxGeometry relative="1" as="geometry">
            <mxPoint x="965" y="645" as="sourcePoint" />
            <mxPoint x="970" y="720" as="targetPoint" />
          </mxGeometry>
        </mxCell>
        <mxCell id="PaydA0Tg0tzG1Le85C62-39" value="" style="edgeStyle=orthogonalEdgeStyle;html=1;labelBackgroundColor=none;endArrow=open;endSize=8;strokeColor=#ff0000;fontFamily=Verdana;fontSize=12;align=left;exitX=0;exitY=0.5;exitDx=0;exitDy=0;entryX=1;entryY=0.5;entryDx=0;entryDy=0;" edge="1" parent="1" source="PaydA0Tg0tzG1Le85C62-35" target="PaydA0Tg0tzG1Le85C62-34">
          <mxGeometry relative="1" as="geometry">
            <mxPoint x="975" y="655" as="sourcePoint" />
            <mxPoint x="980" y="730" as="targetPoint" />
          </mxGeometry>
        </mxCell>
        <mxCell id="PaydA0Tg0tzG1Le85C62-40" value="" style="edgeStyle=orthogonalEdgeStyle;html=1;labelBackgroundColor=none;endArrow=open;endSize=8;strokeColor=#ff0000;fontFamily=Verdana;fontSize=12;align=left;exitX=0;exitY=0.5;exitDx=0;exitDy=0;entryX=1;entryY=0.5;entryDx=0;entryDy=0;" edge="1" parent="1" source="PaydA0Tg0tzG1Le85C62-32" target="PaydA0Tg0tzG1Le85C62-35">
          <mxGeometry relative="1" as="geometry">
            <mxPoint x="745" y="740" as="sourcePoint" />
            <mxPoint x="560" y="740" as="targetPoint" />
          </mxGeometry>
        </mxCell>
        <mxCell id="PaydA0Tg0tzG1Le85C62-35" value="Подтвердить оплату" style="rounded=1;whiteSpace=wrap;html=1;arcSize=24;fillColor=#ffffc0;strokeColor=#ff0000;shadow=0;comic=0;labelBackgroundColor=none;fontFamily=Verdana;fontSize=12;fontColor=#000000;align=center;" vertex="1" parent="1">
          <mxGeometry x="590" y="710" width="120" height="60" as="geometry" />
        </mxCell>
      </root>
    </mxGraphModel>
  </diagram>
</mxfile>
